<?xml version="1.0" encoding="UTF-8"?>
<svg width="48px" height="48px" viewBox="0 0 48 48" version="1.1" xmlns="http://www.w3.org/2000/svg" xmlns:xlink="http://www.w3.org/1999/xlink">
    <!-- Generator: Sketch 55.2 (78181) - https://sketchapp.com -->
    <title>Icons/Cities/berlin-gray</title>
    <desc>Created with Sketch.</desc>
    <defs>
        <path d="M24.5010866,10.071739 L36.1382405,10.071739 L36.1382405,16.1673911 L39.047529,16.1673911 L39.047529,22.2630431 L40.5021732,22.2630431 L40.5021732,23.2630431 L39.047529,23.2630431 L39.047529,39.0260862 L40.5021732,39.0260862 L40.5021732,40.0260862 L7.5,40.0260862 L7.5,39.0260862 L8.95464424,39.0260862 L8.95464424,23.2630431 L7.5,23.2630431 L7.5,22.2630431 L8.95464424,22.2630431 L8.95464424,16.1673911 L11.8639327,16.1673911 L11.8639327,10.071739 L23.5010866,10.071739 L23.5010866,5.5 L24.5010866,5.5 L24.5010866,10.071739 Z M24.5010866,11.071739 L23.5010866,11.071739 L12.8639327,11.071739 L12.8639327,16.1673911 L35.1382405,16.1673911 L35.1382405,11.071739 L24.5010866,11.071739 Z M11.8639327,17.1673911 L9.95464424,17.1673911 L9.95464424,22.2630431 L38.047529,22.2630431 L38.047529,17.1673911 L36.1382405,17.1673911 L35.1382405,17.1673911 L12.8639327,17.1673911 L11.8639327,17.1673911 Z M9.95464424,23.2630431 L9.95464424,39.0260862 L16.2278654,39.0260862 L16.2278654,23.2630431 L9.95464424,23.2630431 Z M38.047529,23.2630431 L31.7743078,23.2630431 L31.7743078,39.0260862 L38.047529,39.0260862 L38.047529,23.2630431 Z M30.7743078,23.2630431 L24.5010866,23.2630431 L24.5010866,39.0260862 L30.7743078,39.0260862 L30.7743078,23.2630431 Z M23.5010866,23.2630431 L17.2278654,23.2630431 L17.2278654,39.0260862 L23.5010866,39.0260862 L23.5010866,23.2630431 Z" id="path-1"></path>
    </defs>
    <g id="Icons/Cities/berlin-gray" stroke="none" stroke-width="1" fill="none" fill-rule="evenodd">
        <mask id="mask-2" fill="white">
            <use xlink:href="#path-1"></use>
        </mask>
        <use id="Mask" fill="#828282" fill-rule="nonzero" xlink:href="#path-1"></use>
    </g>
</svg>