<?xml version="1.0" encoding="UTF-8"?>
<svg width="48px" height="48px" viewBox="0 0 48 48" version="1.1" xmlns="http://www.w3.org/2000/svg" xmlns:xlink="http://www.w3.org/1999/xlink">
    <!-- Generator: Sketch 55.2 (78181) - https://sketchapp.com -->
    <title>Icons/Cities/china-gray</title>
    <desc>Created with Sketch.</desc>
    <g id="Icons/Cities/china-gray" stroke="none" stroke-width="1" fill="none" fill-rule="evenodd">
        <g id="china" transform="translate(9.000000, 9.000000)" stroke="#828282">
            <polyline id="Shape" stroke-linecap="square" points="17.5 29.5 17.5 25.5 15.5 23.5 13.5 25.5 13.5 29.5"></polyline>
            <path d="M22.5,29.5 L22.5,17.5" id="Shape" stroke-linecap="square"></path>
            <path d="M8.5,29.5 L8.5,17.5" id="Shape" stroke-linecap="square"></path>
            <path d="M19.5,5.5 C19.5,3.3 15.5,0.5 15.5,0.5 C15.5,0.5 11.5,3.3 11.5,5.5" id="Shape" stroke-linecap="square"></path>
            <polyline id="Shape" stroke-linecap="square" points="27.5 17.5 27.5 29.5 3.5 29.5 3.5 17.5"></polyline>
            <path d="M5.5,11.5 C3.8,15.3 0.5,16.5 0.5,16.5 L0.5,17.5 L30.5,17.5 L30.5,16.5 C30.5,16.5 27.2,15.3 25.5,11.5" id="Shape"></path>
            <path d="M23.5,5.5 C23,5.5 8,5.5 7.5,5.5 C5.8,9.3 2.5,10.5 2.5,10.5 L2.5,11.5 L28.5,11.5 L28.5,10.5 C28.5,10.5 25.2,9.3 23.5,5.5 Z" id="Shape" stroke-linecap="square"></path>
        </g>
    </g>
</svg>