<?xml version="1.0" encoding="UTF-8"?>
<svg width="48px" height="48px" viewBox="0 0 48 48" version="1.1" xmlns="http://www.w3.org/2000/svg" xmlns:xlink="http://www.w3.org/1999/xlink">
    <!-- Generator: Sketch 55.2 (78181) - https://sketchapp.com -->
    <title>Icons/Cities/india-gray</title>
    <desc>Created with Sketch.</desc>
    <g id="Icons/Cities/india-gray" stroke="none" stroke-width="1" fill="none" fill-rule="evenodd">
        <g id="np_india_806003_000000" transform="translate(6.000000, 6.000000)" fill="#828282" fill-rule="nonzero" stroke="#828282" stroke-width="0.7">
            <path d="M33.0293319,17.5447213 L33.0293319,14.9373192 C33.0442784,14.913318 33.0720356,14.8740444 33.0891199,14.8544051 C33.1147421,14.8194946 33.1360942,14.7911304 33.1467705,14.7693127 C33.5695386,14.0099934 33.7830763,13.1830872 33.7339363,12.4957675 C33.6869619,11.8564848 33.3325187,11.3786286 33.0271728,11.036058 C32.779494,10.7589573 32.4912406,10.5298544 32.2093934,10.3094709 L32.1602845,10.2701967 C31.5923047,9.8229055 31.0649378,9.45636106 30.5503615,9.15305785 L30.5183336,9.13123902 C30.4393324,9.0766908 30.3752755,9.0352321 30.3176248,9.00250552 L30.3176248,7.67154626 C30.3176248,7.56463049 30.2322174,7.47735401 30.1275912,7.47735401 C30.0229651,7.47735401 29.9375577,7.56463049 29.9375577,7.67154626 L29.9375577,9.01781032 C29.0322664,9.5283763 28.1952463,10.1327708 27.4564517,10.817912 C27.2407986,11.0164667 27.0187393,11.2237463 26.8457818,11.4833917 C26.0963283,12.6114227 26.7774559,14.149667 27.1062731,14.7606303 C27.1169489,14.7802679 27.138301,14.8129962 27.166061,14.8500908 C27.1810069,14.8719096 27.2108997,14.9133655 27.2258489,14.9395512 L27.227984,17.544775 L22.7163405,17.544775 L22.7142054,12.8253101 C22.7270163,12.7860354 22.8081509,12.6747588 22.8465883,12.6245714 C22.887157,12.5700237 22.9213205,12.5220236 22.938402,12.4914755 C23.6600878,11.1932484 24.0273534,9.77934155 23.9440504,8.61204314 C23.867181,7.54070696 23.2629228,6.73558497 22.7483466,6.15523132 C22.3277157,5.68175435 21.8280782,5.29118026 21.3455331,4.91152061 L21.2558567,4.84169943 C20.2736577,4.06930962 19.3576529,3.43438374 18.4630204,2.90195535 L18.3989635,2.85831711 C18.2025237,2.72303718 18.0786843,2.64230714 17.9911451,2.59648769 L17.9911451,0.194192251 C17.9911451,0.0872764746 17.9057377,0 17.8011116,0 C17.6964854,0 17.611078,0.0872764746 17.611078,0.194192251 L17.611078,2.62486301 C16.0160774,3.51511098 14.544938,4.57767763 13.2424817,5.78424347 C12.8730953,6.12680293 12.4930282,6.47809842 12.1983521,6.92104399 C10.9364541,8.81928636 12.1001322,11.4419933 12.657415,12.4805415 C12.6744964,12.5110885 12.7086594,12.5612715 12.7492286,12.6179998 C12.7897978,12.6747281 12.873068,12.7881903 12.8816115,12.8034616 L12.8837465,17.5447666 L7.85752678,17.5447666 L7.85752678,14.9373644 C7.87247322,14.9133633 7.90023049,14.8740897 7.91731471,14.8544504 C7.94293693,14.8195398 7.96428851,14.7911756 7.9749654,14.7693579 C8.39773349,14.0100386 8.61127116,13.1831324 8.56213115,12.4958127 C8.51515734,11.85653 8.16071902,11.3786739 7.85536768,11.0361032 C7.6076889,10.7590025 7.31943545,10.5298997 7.03758823,10.3095161 L6.98847883,10.270242 C6.420499,9.82295074 5.8931321,9.4564063 5.37855582,9.1531031 L5.3465279,9.13128426 C5.26752673,9.07673604 5.20346979,9.03527734 5.1458191,9.00255076 L5.1458191,7.67159151 C5.1458191,7.56467573 5.06041169,7.47739925 4.95578555,7.47739925 C4.85115941,7.47739925 4.76575199,7.56467573 4.76575199,7.67159151 L4.76575199,9.01785556 C3.86046069,9.52842154 3.02344065,10.132816 2.28464599,10.8179573 C2.06899294,11.016512 1.84693365,11.2237915 1.67397611,11.4834369 C0.924522597,12.6114679 1.60565018,14.1497123 1.93446737,14.7606755 C1.94514371,14.7803131 1.96649529,14.8130414 1.9942553,14.850136 C2.00920119,14.8719548 2.03909405,14.9134107 2.05403776,14.9395965 L2.05617335,17.5448202 L0,17.5448202 L0,33.9047605 L35.5999985,33.9047605 L35.5999985,17.5448202 L33.0293319,17.5447213 Z M27.1620473,11.7015264 C27.3093744,11.47897 27.5143522,11.2891458 27.7129183,11.1036896 C28.4367359,10.4338531 29.2523836,9.84037308 30.1406207,9.34291114 C30.1790543,9.36691175 30.2345716,9.40400746 30.3071666,9.45200533 C30.3327893,9.46946063 30.3520059,9.48255238 30.358411,9.48691592 C30.8601803,9.78365594 31.374773,10.1415034 31.9299075,10.5778579 L31.9790169,10.6171326 C32.2459144,10.8265961 32.5234872,11.0447845 32.7476563,11.2956827 C33.1405305,11.7364275 33.3284268,12.1161095 33.3583262,12.5219102 C33.4010299,13.1241039 33.2003239,13.8921369 32.822394,14.5729213 C32.8159883,14.5838308 32.8031775,14.5991043 32.7903661,14.6165596 C32.7113649,14.7234754 32.6537142,14.8063838 32.6537142,14.9045692 L32.6537142,15.0071169 L27.6061221,15.0071169 L27.6061221,14.9045692 C27.6061221,14.8107462 27.5527426,14.7300162 27.4716075,14.6165596 C27.4587966,14.5969225 27.4459858,14.581649 27.4395801,14.5729213 C27.1449259,14.0274448 26.5299706,12.6506605 27.1620073,11.7015393 L27.1620473,11.7015264 Z M27.6061658,15.3955137 L32.6516262,15.3955137 L32.6516262,17.5447213 L27.6061658,17.5447213 L27.6061658,15.3955137 Z M12.5126935,7.13483029 C12.779591,6.7311745 13.1446811,6.39517265 13.4970243,6.06785095 C14.78669,4.87217722 16.2428523,3.82050268 17.8229305,2.94114681 C17.8912564,2.97823918 18.0129641,3.05678745 18.1880479,3.17679609 C18.2307511,3.2051608 18.2606429,3.2269802 18.2713181,3.2335244 C19.1552917,3.75718325 20.0563195,4.38339544 21.0257278,5.14489316 L21.1154043,5.21471434 C21.5851478,5.58345954 22.0698356,5.96531995 22.4691323,6.4125665 C23.1758958,7.20679638 23.5153937,7.89406022 23.5687426,8.63595214 C23.6456066,9.71382359 23.2890326,11.0818719 22.6121795,12.2972072 C22.5993681,12.3190266 22.575881,12.3495731 22.5481226,12.3866677 C22.422146,12.5546742 22.3410076,12.6746829 22.3410076,12.7990484 L22.3410076,13.1219685 L13.2624039,13.1241503 L13.2624039,12.8012301 C13.2624039,12.6834055 13.1834028,12.5655809 13.0552889,12.3866655 C13.0275316,12.3473913 13.0019094,12.3124819 12.9891002,12.2928426 C12.4659804,11.3153461 11.3685183,8.85635582 12.5129559,7.13478896 L12.5126935,7.13483029 Z M1.99049956,11.7015823 C2.13782667,11.4790259 2.34280448,11.2892017 2.54137057,11.1037454 C3.2651882,10.433909 4.08083588,9.84042894 4.96907303,9.34296699 C5.00750609,9.36696761 5.06302392,9.40406332 5.13561886,9.45206119 C5.16124109,9.46951649 5.18045762,9.48260824 5.18686331,9.48697178 C5.68863258,9.78371179 6.20322526,10.1415593 6.75835981,10.5779137 L6.80746922,10.6171884 C7.07436672,10.826652 7.35193946,11.0448404 7.57610865,11.2957386 C7.96898278,11.7364834 8.1568791,12.1161654 8.18677853,12.5219661 C8.22948278,13.1241598 8.02877617,13.8921928 7.65084629,14.5729772 C7.6444406,14.5838866 7.63162976,14.5991601 7.61881837,14.6166154 C7.5398172,14.7235312 7.48216651,14.8064397 7.48216651,14.904625 L7.48216651,15.0071728 L2.4345744,15.0071728 L2.4345744,14.904625 C2.4345744,14.8108021 2.3811949,14.7300721 2.30005977,14.6166154 C2.28724893,14.5969784 2.27443754,14.5817048 2.2680324,14.5729772 C1.97337817,14.0275006 1.35842289,12.6507163 1.99045965,11.7015951 L1.99049956,11.7015823 Z M2.43461813,15.3955696 L7.48007846,15.3955696 L7.48007846,17.5447772 L2.43461813,17.5447772 L2.43461813,15.3955696 Z M17.7992077,20.4183377 C18.9009498,20.5121606 20.7372229,23.3966299 21.3884511,24.5661626 L21.3884511,33.5161207 L14.2098551,33.5161207 L14.2098551,24.5661626 C14.8610832,23.3966299 16.6973564,20.5121773 17.7990984,20.4183377 L17.7992077,20.4183377 Z M35.2203703,33.5162324 L21.7686713,33.5162324 L21.7686713,24.5137688 C21.7686713,24.48104 21.7601305,24.44831 21.7451841,24.4177619 C21.5017743,23.9791955 19.3345358,20.1281161 17.8121793,20.0277412 C17.8079086,20.0277412 17.803638,20.029923 17.7993679,20.029923 C17.7950978,20.029923 17.7929622,20.0277412 17.7886921,20.0277412 C17.7780163,20.0277412 17.7652049,20.0342871 17.7545291,20.0342871 C17.7481235,20.0364689 17.7395827,20.0364689 17.733177,20.0386506 C16.2150841,20.2241125 14.0948483,23.9835473 13.8556529,24.4177233 C13.8407065,24.446088 13.8321663,24.4788196 13.8321663,24.5137302 L13.8321663,33.5161939 L0.378516387,33.5183756 L0.378516387,17.9309369 L13.2620547,17.9309369 L13.2620547,13.5103625 L22.336832,13.5103625 L22.336832,17.9309369 L35.2203703,17.9309369 L35.2203703,33.5162324 Z" id="Shape"></path>
            <path d="M7.64280309,20.3428563 L7.62533384,20.3428563 L7.60786459,20.3428563 C6.62304632,20.4139594 5.2604451,22.747378 5.10973442,23.0145594 C5.09444869,23.0425693 5.08571407,23.0748903 5.08571407,23.1093635 L5.08571407,28.627287 C5.08571407,28.7328633 5.1730603,28.8190464 5.28006153,28.8190464 L9.97708067,28.8190464 C10.0840819,28.8190464 10.1714281,28.7328633 10.1714281,28.627287 L10.1648776,23.1071572 C10.1648776,23.0748384 10.156143,23.0425185 10.1408572,23.0123531 C9.98799993,22.7473394 8.62542108,20.4139539 7.64272706,20.3428563 L7.64280309,20.3428563 Z M9.77841146,28.4355165 L5.47007606,28.4355165 L5.47007606,23.1589608 C6.01162269,22.2260324 7.04448839,20.7824589 7.62536179,20.7264192 C8.20405503,20.7824369 9.23907294,22.2260324 9.78064752,23.1589608 L9.77841146,28.4355165 Z" id="Shape"></path>
            <path d="M25.6168373,28.8190464 L30.3196953,28.8190464 C30.4268296,28.8190464 30.5142844,28.7328633 30.5142844,28.627287 L30.5142844,23.1093635 C30.5142844,23.0770447 30.5055389,23.0447248 30.4902342,23.0145594 C30.3371869,22.747389 28.975097,20.4161602 27.9889986,20.3428563 L27.9715076,20.3428563 L27.9540166,20.3428563 C26.9679741,20.4139594 25.603679,22.747378 25.452781,23.0145594 C25.4374768,23.0425687 25.4287313,23.0748903 25.4287313,23.1093635 L25.4287313,28.627287 C25.4243583,28.7350144 25.5096263,28.8190464 25.6167606,28.8190464 L25.6168373,28.8190464 Z M25.8114263,23.1610237 C26.3536462,22.2280953 27.3877958,20.7845218 27.9693913,20.7284821 C28.5488039,20.7844997 29.5851085,22.2280953 30.1273563,23.1610237 L30.1273563,28.4375794 L25.8136652,28.4375794 L25.8114263,23.1610237 Z" id="Shape"></path>
        </g>
    </g>
</svg>