<svg width="85" height="30" xmlns="http://www.w3.org/2000/svg">

 <g>
  <title>Layer 1</title>
  <path d="m200,175c-4,3 -12.13782,13.91968 -22,31c-17.24207,29.86153 -27.31134,51.31931 -35,67c-5.51633,11.25034 -10,19 -12,25c-1,3 -1,4 5,4c5,0 9.95332,-2.49902 18,-3c6.98648,-0.43497 14.95847,-1.49924 24,-2c5.99081,-0.33179 13,-1 18,-1l3,-1l2,-1l1,0" id="svg_1" stroke="#000" fill="none"/>
  <path d="m274,240c-2,-1 -7,-1 -11,-1c-5,0 -10.11237,-0.45294 -15,1c-5.16191,1.53448 -12.67738,6.34099 -19,12c-4.77115,4.27039 -8,11 -9,17c-1,6 -1.41028,12.23297 1,16c3.45099,5.39359 8.0451,7.84842 15,10c3.02101,0.9346 7.01947,1.39417 11,1c5.0742,-0.50244 13.2648,-8.74142 24,-20c10.25885,-10.759 20.57443,-19.39334 28,-27c5.45575,-5.58881 7,-11 7,-15c0,-1 -2,-2 -5,-2c-3,0 -8,0 -13,0c-5,0 -7.87857,1.49345 -11,2c-0.98709,0.16019 -2.31,0.33749 -5,2c-2.40601,1.487 -3.186,1.69255 -5,3c-1.14728,0.8269 -2.4588,0.69344 -3,2c-0.38269,0.92387 2,1 5,2l7,0" id="svg_2" stroke="#000" fill="none"/>
  <path d="m347,235c-1,0 -2.186,-0.30745 -4,1c-1.14728,0.8269 -5.29694,4.77628 -9,10c-5.45587,7.69632 -8.48627,12.82376 -9,15c-0.68927,2.91974 -0.17624,6.48627 2,7c2.91974,0.68927 8.133,0.43048 12,-1c4.19434,-1.55161 8.10339,-2.90634 9,-4c2.28589,-2.78833 4.54895,-7.81401 6,-13c1.63904,-5.85777 1,-11 1,-14c0,-1 0,-2 0,-1c0,1 -0.48874,2.02997 0,6c1.00754,8.18443 3.13083,14.95796 5,21c2.15158,6.9549 4.4733,15.29367 8,21c2.62866,4.25327 5,9 7,11c3,3 4.87857,4.49347 8,5c2.96127,0.48056 5.10699,0.91901 9,0c2.17624,-0.51373 7,-4 10,-7l5,-6" id="svg_3" stroke="#000" fill="none"/>
  <path d="m431,219c1,0 1,1 2,2c1,1 0.56952,5.133 2,9c1.55161,4.19435 2.33749,8.31001 4,11c1.487,2.40601 3,3 4,3c1,0 2,0 3,0c3,0 8.20865,-2.79741 15,-10c8.26093,-8.76112 15.96222,-19.01689 20,-28c4.95374,-11.0209 6.49622,-15.90779 7,-20c0.36655,-2.97752 0.70709,-4.29289 0,-5c-0.70709,-0.70711 -1,1 -1,2c0,4 0,10 0,16c0,7 0,15 0,24c0,10 0.98538,19.04866 0,29c-1.00488,10.14841 -2.82733,18.50031 -8,29c-5.76208,11.69608 -10.63876,16.38443 -17,22c-8.54764,7.54572 -18.6734,14.64502 -34,22c-13.73221,6.58984 -22.97925,10.09586 -32,12c-14.96725,3.15936 -28.97659,5.49976 -45,6c-22.9888,0.71771 -43.02545,0.40225 -62,-1c-21.03766,-1.55472 -35.99687,-3.03821 -48,-4c-12.99675,-1.04138 -20.93796,-2.49829 -27,-3c-3.98637,-0.32993 -7,-1 -11,-1c-5,0 -9,0 -12,0l-3,0l-2,0l-1,0" id="svg_4" stroke="#000" fill="none"/>
  <text style="cursor: move;" xml:space="preserve" text-anchor="start" font-family="'Piazzolla'" font-size="24" id="svg_5" y="23.0303" x="16.46969" stroke-width="0" stroke="#000" fill="#000000">Loai</text>
  <path id="svg_7" d="m7.14807,16.86318c0.003,-0.42481 0.56808,-0.56476 0.80005,-0.85949c0.89544,-0.72864 1.76791,-1.56987 2.31678,-2.71819c0.58311,-1.17328 0.89933,-2.61047 0.66213,-3.97142c-0.12578,-0.84448 -0.80275,-1.52036 -1.51905,-1.41466c-0.47176,0.07826 -1.0167,0.20993 -1.28966,0.73805c-0.29629,0.26983 -0.13328,0.90224 0.26172,0.66205c0.50536,-0.2339 1.14008,0.24306 1.1201,0.91907c0.00059,0.64099 -0.53456,1.09318 -1.03328,1.03301c-0.55547,-0.00673 -1.10534,-0.55017 -1.09373,-1.25468c-0.0385,-1.13547 0.77175,-2.06285 1.63904,-2.30083c0.7755,-0.293 1.67706,-0.1751 2.331,0.43442c0.48659,0.4033 0.86978,1.01471 0.94972,1.73638c0.17261,0.93825 -0.05046,1.90654 -0.43741,2.72281c-0.49731,1.09966 -1.25717,1.99989 -2.13924,2.64568c-0.81924,0.63347 -1.67139,1.20557 -2.55293,1.70144c-0.00508,-0.02455 -0.01016,-0.04909 -0.01524,-0.07364l0,0zm5.88534,-4.62962c-0.42177,-0.23159 -0.32872,-1.17263 0.16221,-1.19379c0.36735,-0.1039 0.71047,0.36163 0.59707,0.79213c-0.07153,0.40285 -0.4704,0.57745 -0.75929,0.40167zm0,-2.57427c-0.42177,-0.23159 -0.32872,-1.17263 0.16221,-1.19379c0.36735,-0.1039 0.71047,0.36163 0.59707,0.79213c-0.07339,0.40422 -0.46835,0.57672 -0.75929,0.40167z" stroke-width="0" stroke="#000" fill="#000000"/>
  <path transform="rotate(-28.2375 69.348 8.77167)" id="svg_8" d="m69.0493,13.28951c-0.80195,-0.09666 -1.23496,-1.00026 -0.43364,-1.33127c0.83535,-0.32637 1.33217,0.8355 0.4197,0.94907c-0.49964,0.14193 0.6487,0.37962 0.86273,0.14096c0.66877,-0.24545 0.56546,-0.88429 0.40456,-1.3342c-0.05584,-0.34468 -0.12567,-0.71369 -0.69919,-0.5178c-1.38367,0.08441 -2.47912,-0.97998 -2.36908,-1.97572c0.03736,-0.9392 1.05192,-1.58248 1.80319,-2.23469c-0.24664,-0.85325 -0.32111,-1.83899 0.39388,-2.58253c0.65859,-0.60442 0.99287,0.50162 1.10427,0.87693c0.24745,0.87728 -0.24595,1.79917 -1.06696,2.41758c0.07839,0.29334 0.15553,0.58687 0.23542,0.87997c0.86761,-0.12702 1.69577,0.42888 1.7431,1.08002c0.13406,0.58798 -0.3633,1.14326 -1.04264,1.39595c-0.01117,0.50491 0.35676,1.02865 0.22456,1.55004c-0.12696,0.53907 -0.92425,0.80342 -1.57989,0.68569l0,0zm0.90575,-2.30036c0.24581,-0.34987 -0.20005,-0.96778 -0.22453,-1.41688c0.00963,-0.78315 -1.08591,0.1517 -0.76012,0.53629c0.09657,0.22757 0.93481,0.64489 0.16482,0.38751c-0.80389,-0.36483 -0.76707,-1.30351 -0.03255,-1.69985c0.61624,-0.1035 0.23986,-0.72705 0.12375,-0.93187c-0.75687,0.52304 -1.61476,1.18165 -1.48423,2.02819c0.09832,0.79346 1.23906,1.2748 2.21285,1.09661l0,0zm0.50926,-0.15145c0.72188,-0.3514 0.69819,-1.27363 -0.0916,-1.55966c-0.84271,-0.33765 -0.26551,0.54693 -0.25007,0.88363c0.11695,0.12889 0.0507,0.87994 0.34167,0.67603zm-0.88968,-4.22729c0.44405,-0.40732 0.95164,-0.99537 0.63979,-1.5339c-0.67157,-0.33614 -1.04477,0.57267 -1.06129,0.97062c-0.00611,0.25804 -0.05626,1.14746 0.4215,0.56328l0,0l0,0z" stroke-width="0" stroke="#000" fill="#000000"/>
  <path id="svg_9" d="m12.22472,28.06022c-0.40486,-0.05744 -0.71049,-0.33565 -0.60912,-0.6249c0.14336,-0.40581 0.68651,-0.68652 1.2301,-0.81994c0.36208,-0.08382 0.77297,-0.07115 1.11295,0.05348c0.03036,-1.55002 0.01302,-3.10042 0.01763,-4.65061c0.12272,-0.00002 0.2802,-0.02764 0.24685,0.09624c0.01712,0.27837 0.21339,0.5332 0.51501,0.71277c0.67289,0.43697 1.42981,0.91147 1.58438,1.57746c0.04388,0.28097 -0.00315,0.56413 -0.0927,0.8385c0.26519,0.34499 0.24921,0.76298 0.14153,1.13715c-0.06982,0.19758 -0.18371,0.38792 -0.32849,0.56417c-0.34184,0.11092 0.04052,-0.18129 0.03572,-0.28656c0.1849,-0.31624 0.20611,-0.6685 0.12201,-1.00161c-0.1832,-0.4873 -0.87581,-0.72539 -1.43277,-0.98017c-0.20152,-0.05497 -0.63229,-0.38652 -0.54687,-0.06164c-0.01867,0.88065 -0.01548,1.76142 -0.02133,2.64213c-0.23379,0.40831 -0.77012,0.71993 -1.39307,0.79808c-0.19085,0.02299 -0.39071,0.0314 -0.58184,0.00544l0,0zm3.88419,-3.32976c0.00555,-0.50118 -0.53001,-0.90668 -1.05479,-1.20389c-0.2626,-0.138 -0.54076,-0.28419 -0.83604,-0.37351c0.01816,0.2882 0.20736,0.56901 0.43382,0.80834c0.42678,0.39858 1.07109,0.66519 1.4286,1.10405c0.04287,-0.10896 0.02994,-0.22332 0.02841,-0.33499z" stroke-width="0" stroke="#000" fill="#000000"/>
  <path transform="rotate(26.4958 69.0225 23.0838)" id="svg_10" d="m66.95781,25.65143c-0.34518,-0.0524 -0.46421,-0.41849 -0.25841,-0.63781c0.27312,-0.3392 0.85734,-0.56786 1.31508,-0.35384c0.00912,-1.19446 0.00386,-2.38899 0.00525,-3.58348c1.14136,-0.1933 2.28519,-0.37666 3.42698,-0.56828c-0.00247,1.33873 -0.00495,2.67745 -0.00742,4.01618c-0.17887,0.40491 -0.75686,0.68569 -1.26013,0.56014c-0.29963,-0.07529 -0.37146,-0.39997 -0.20461,-0.5989c0.22848,-0.29674 0.65373,-0.50048 1.08124,-0.4449c0.122,-0.01036 0.30165,0.15545 0.25009,-0.03212c0,-0.93837 0,-1.87675 0,-2.81512c-1.04772,0.17706 -2.09751,0.34571 -3.14571,0.52085c-0.00358,1.09198 0.00891,2.18413 -0.00934,3.27598c-0.03335,0.33165 -0.41256,0.55791 -0.76655,0.64632c-0.13984,0.0198 -0.28545,0.03208 -0.42647,0.01499l0,0zm2.73308,-4.452c0.53832,-0.08893 1.0769,-0.1768 1.61499,-0.26672c0.06848,-0.22902 -0.23799,-0.08029 -0.38786,-0.0747c-0.91915,0.15232 -1.83884,0.30238 -2.75785,0.4553c-0.06848,0.22902 0.23799,0.08029 0.38786,0.0747c0.38092,-0.06302 0.76188,-0.12583 1.14286,-0.18858l0,0z" stroke-width="0" stroke="#000" fill="#000000"/>
 </g>
</svg>