<svg xmlns="http://www.w3.org/2000/svg" width="113" height="32" viewBox="0 0 113 32">
    <g fill="#333" fill-rule="evenodd">
        <g transform="translate(.352 5)">
            <rect width="2" height="13" x=".648" y="4" rx="1"/>
            <rect width="2" height="21" x="15.648" rx="1"/>
            <rect width="2" height="6" x="4.648" y="9" rx="1"/>
            <rect width="5" height="15" x="8.648" y="4" rx="2.5"/>
            <rect width="5" height="10" x="19.648" y="7" rx="2.5"/>
        </g>
        <path d="M29.721 19.221c.098.92.935 2.495 3.364 2.495 2.117 0 3.135-1.346 3.135-2.659 0-1.181-.804-2.15-2.396-2.478l-1.149-.246c-.443-.082-.738-.328-.738-.722 0-.46.46-.804 1.033-.804.92 0 1.264.607 1.33 1.083l1.821-.41c-.098-.87-.87-2.33-3.167-2.33-1.74 0-3.02 1.197-3.02 2.642 0 1.132.706 2.067 2.265 2.412l1.067.246c.623.131.87.427.87.788 0 .427-.345.804-1.067.804-.952 0-1.428-.59-1.477-1.23l-1.871.41zm11.882.51c1.067 0 2.051-.772 2.051-2.298 0-1.527-.984-2.298-2.051-2.298-1.067 0-2.052.771-2.052 2.298 0 1.51.985 2.297 2.052 2.297zm0-6.582c2.412 0 4.234 1.79 4.234 4.284 0 2.478-1.822 4.283-4.234 4.283-2.413 0-4.234-1.805-4.234-4.283 0-2.495 1.821-4.284 4.234-4.284zm11.242 8.32h2.084a13.28 13.28 0 0 1-.082-1.46v-6.614h-2.183v4.694c0 .936-.558 1.592-1.526 1.592-1.018 0-1.477-.722-1.477-1.625v-4.66h-2.183v5.103c0 1.756 1.116 3.184 3.069 3.184.853 0 1.789-.328 2.232-1.083 0 .328.033.706.066.87zm6.515-4.644c0-.935.558-1.674 1.51-1.674 1.05 0 1.493.706 1.493 1.609v4.71h2.183v-5.088c0-1.772-.92-3.2-2.921-3.2-.87 0-1.838.378-2.33 1.215v-1.002h-2.118v8.075h2.183v-4.645zm15.098-7.237v10.421c0 .542.033 1.133.066 1.46H72.44a5.575 5.575 0 0 1-.082-.935c-.361.64-1.182 1.133-2.265 1.133-2.298 0-3.939-1.805-3.939-4.25 0-2.364 1.592-4.218 3.873-4.218 1.395 0 2.052.574 2.282 1V9.589h2.15zm-6.105 7.828c0 1.444.854 2.298 2.003 2.298 1.116 0 1.985-.854 1.985-2.314 0-1.444-.87-2.249-1.985-2.249-1.116 0-2.003.821-2.003 2.265zm7.78 1.805c.098.92.935 2.495 3.364 2.495 2.117 0 3.134-1.346 3.134-2.659 0-1.181-.804-2.15-2.396-2.478l-1.149-.246c-.443-.082-.738-.328-.738-.722 0-.46.46-.804 1.034-.804.919 0 1.264.607 1.33 1.083l1.82-.41c-.098-.87-.869-2.33-3.167-2.33-1.74 0-3.02 1.197-3.02 2.642 0 1.132.706 2.067 2.265 2.412l1.067.246c.624.131.87.427.87.788 0 .427-.345.804-1.067.804-.952 0-1.427-.59-1.477-1.23l-1.87.41zm10.437-2.396c0-.935.558-1.674 1.51-1.674 1.05 0 1.493.706 1.493 1.609v4.71h2.183v-5.088c0-1.772-.919-3.2-2.921-3.2-.87 0-1.838.378-2.33 1.215v-1.002h-2.118v8.075h2.183v-4.645zm6.91 2.446c0-1.444 1.066-2.249 2.412-2.446l1.985-.295c.46-.066.608-.295.608-.574 0-.575-.443-1.05-1.362-1.05-.952 0-1.477.607-1.543 1.312l-1.937-.41c.132-1.264 1.297-2.659 3.463-2.659 2.56 0 3.512 1.444 3.512 3.07v3.97c0 .427.05 1.002.099 1.28h-2.003c-.049-.213-.082-.656-.082-.967-.41.64-1.181 1.198-2.38 1.198-1.722 0-2.773-1.166-2.773-2.43zm3.232.804c.92 0 1.773-.443 1.773-1.871v-.361l-1.822.279c-.558.082-1.001.394-1.001 1.017 0 .476.345.936 1.05.936zM105 24.588h-2.183V13.395h2.117v.985c.361-.624 1.264-1.165 2.478-1.165 2.364 0 3.726 1.805 3.726 4.201 0 2.446-1.526 4.25-3.808 4.25-1.116 0-1.936-.442-2.33-.984v3.906zm3.988-7.155c0-1.428-.886-2.265-2.002-2.265-1.116 0-2.019.837-2.019 2.265 0 1.427.903 2.28 2.019 2.28s2.002-.836 2.002-2.28z"/>
    </g>
</svg>
