<svg xmlns="http://www.w3.org/2000/svg" width="48" height="48" viewBox="0 0 48 48">
    <g fill="none" fill-rule="evenodd" stroke="#828282">
        <path stroke-linecap="square" d="M16.855 39.468h-5.323V20.306h5.323M31.758 39.468h5.323V20.306h-5.323M22.177 19.242h4.258M22.177 23.5h4.258M22.177 27.758h4.258M22.177 32.016h4.258M24.306 39.468v-3.194M24.306 9.661V7.532"/>
        <path d="M28.565 15.303V13.92c0-1.17-.426-2.235-1.278-2.98-.745-.852-1.81-1.278-2.98-1.278a4.27 4.27 0 0 0-4.259 4.258v1.384"/>
        <path stroke-linecap="square" d="M24.306 13.92a7.406 7.406 0 0 0-7.451 7.451v18.097h14.903V21.37c0-4.152-3.3-7.452-7.452-7.452z"/>
    </g>
</svg>
