<?xml version="1.0" encoding="UTF-8"?>
<svg width="48px" height="48px" viewBox="0 0 48 48" version="1.1" xmlns="http://www.w3.org/2000/svg" xmlns:xlink="http://www.w3.org/1999/xlink">
    <!-- Generator: Sketch 55.2 (78181) - https://sketchapp.com -->
    <title>Icons/Cities/paris-gray</title>
    <desc>Created with Sketch.</desc>
    <defs>
        <path d="M19.9,15.6 L19.9,12 C19.9,9.85354538 21.4320506,8.16423888 23.5,7.9282323 L23.5,5.5 L24.5,5.5 L24.5,7.9282323 C26.5679494,8.16423888 28.1,9.85354538 28.1,12 L28.1,15.600002 C28.1000005,17.1555948 28.7152497,19.4387175 29.8480945,22.3 L32.9,22.3 L32.9,23.3 L30.2551957,23.3 C30.7736819,24.5411632 31.379378,25.8789506 32.0653065,27.3026894 C32.5938421,28.3997374 33.1638394,29.534653 33.7696881,30.6999999 L36.5,30.7 L36.5,31.7 L34.2943655,31.7 C35.5303241,34.0349356 36.8434051,36.3748193 38.1565072,38.6180354 C38.6474147,39.4566689 39.103197,40.2215068 39.5121229,40.8971107 C39.661441,41.1438055 39.7846655,41.3459318 39.8791441,41.5 L42.5,41.5 L42.5,42.5 L28.3,42.5 L28.3,40.8 C28.3,38.4361424 26.3638576,36.5 24,36.5 C21.6361424,36.5 19.7,38.4361424 19.7,40.8 L19.7,42.5 L5.5,42.5 L5.5,41.5 L8.12085591,41.5 C8.21533447,41.3459318 8.33855903,41.1438055 8.48787712,40.8971107 C8.89680296,40.2215068 9.35258532,39.4566689 9.84349277,38.6180354 C11.1565949,36.3748193 12.4696759,34.0349356 13.7056345,31.7 L11.5,31.7 L11.5,30.7 L14.2303119,30.7 C14.8361606,29.534653 15.4061579,28.3997374 15.9346935,27.3026894 C16.620622,25.8789506 17.2263181,24.5411632 17.7448043,23.3 L15.1,23.3 L15.1,22.3 L18.1519055,22.3 C19.2847508,19.4387163 19.9,17.1555929 19.9,15.6 Z M20.8830024,16.1 C20.7795236,17.6816175 20.2059369,19.7720832 19.2270498,22.3 L28.7729502,22.3 C27.7940631,19.7720832 27.2204764,17.6816175 27.1169976,16.1 L20.8830024,16.1 Z M9.29184131,41.5 L18.7,41.5 L18.7,40.8 C18.7,37.8838576 21.0838576,35.5 24,35.5 C26.9161424,35.5 29.3,37.8838576 29.3,40.8 L29.3,41.5 L38.7081587,41.5 C38.6913386,41.4722488 38.6741599,41.4438871 38.6566271,41.4149205 C38.2452405,40.735251 37.7869603,39.9662217 37.2934928,39.1232146 C35.8859672,36.7186918 34.4784177,34.2035863 33.1639071,31.7 L14.8360929,31.7 C13.5215823,34.2035863 12.1140328,36.7186918 10.7065072,39.1232146 C10.2130397,39.9662217 9.75475954,40.735251 9.34337288,41.4149205 C9.32584013,41.4438871 9.30866144,41.4722488 9.29184098,41.5 Z M18.8281214,23.3 C18.2674502,24.6673083 17.6002706,26.1495239 16.8355901,27.7367231 C16.3725177,28.6978934 15.8782171,29.687236 15.3563301,30.7 L32.6436705,30.7 C32.1217829,29.687236 31.6274823,28.6978934 31.1644099,27.7367231 C30.3997294,26.1495239 29.7325498,24.6673083 29.1718786,23.3 L18.8281214,23.3 Z M27.1,12 C27.1,10.2361424 25.7638576,8.9 24,8.9 C22.2361424,8.9 20.9,10.2361424 20.9,12 L20.9,15.1 L27.1,15.1 L27.1,12 Z" id="path-1"></path>
    </defs>
    <g id="Icons/Cities/paris-gray" stroke="none" stroke-width="1" fill="none" fill-rule="evenodd">
        <mask id="mask-2" fill="white">
            <use xlink:href="#path-1"></use>
        </mask>
        <use id="Mask" fill="#828282" fill-rule="nonzero" xlink:href="#path-1"></use>
        <g id="Group" mask="url(#mask-2)" stroke="#828282" stroke-linecap="square" stroke-width="2">
            <g transform="translate(-1.000000, 4.000000)" id="Shape">
                <path d="M11.3076923,33.9230769 L11.3076923,29.0769231"></path>
                <path d="M17.7692308,33.9230769 L17.7692308,29.0769231"></path>
                <path d="M24.2307692,33.9230769 L24.2307692,29.0769231"></path>
                <path d="M30.6923077,33.9230769 L30.6923077,29.0769231"></path>
                <path d="M37.1538462,33.9230769 L37.1538462,29.0769231"></path>
                <path d="M11.3076923,22.6153846 L11.3076923,17.7692308"></path>
                <path d="M17.7692308,22.6153846 L17.7692308,17.7692308"></path>
                <path d="M11.3076923,11.3076923 L11.3076923,6.46153846"></path>
                <path d="M17.7692308,11.3076923 L17.7692308,6.46153846"></path>
                <path d="M24.2307692,22.6153846 L24.2307692,17.7692308"></path>
                <path d="M24.2307692,11.3076923 L24.2307692,6.46153846"></path>
                <path d="M30.6923077,22.6153846 L30.6923077,17.7692308"></path>
                <path d="M37.1538462,22.6153846 L37.1538462,17.7692308"></path>
                <path d="M25.8461538,0 L8.07692308,0 C5.41153846,0 3.23076923,2.18076923 3.23076923,4.84615385 L3.23076923,33.9230769 L45.2307692,33.9230769 L45.2307692,11.3076923 L35.5384615,11.3076923 L25.8461538,0 Z"></path>
                <polyline points="3.23076923 33.9230769 0 33.9230769 0 42 48.4615385 42 48.4615385 33.9230769 45.2307692 33.9230769"></polyline>
                <path d="M45.2307692,22.6153846 L3.23076923,22.6153846"></path>
                <path d="M35.5384615,11.3076923 L3.23076923,11.3076923"></path>
            </g>
        </g>
    </g>
</svg>