<?xml version="1.0" encoding="UTF-8"?>
<svg width="48px" height="48px" viewBox="0 0 48 48" version="1.1" xmlns="http://www.w3.org/2000/svg" xmlns:xlink="http://www.w3.org/1999/xlink">
    <!-- Generator: Sketch 55.2 (78181) - https://sketchapp.com -->
    <title>Icons/Cities/rio-gray</title>
    <desc>Created with Sketch.</desc>
    <g id="Icons/Cities/rio-gray" stroke="none" stroke-width="1" fill="none" fill-rule="evenodd">
        <g id="Group-2" transform="translate(7.000000, 7.000000)" fill="#828282" fill-rule="nonzero">
            <polygon id="Shape" points="22.1896594 21.3210869 22.4770073 22.2789131 11.8103406 25.4789131 11.5229927 24.5210869"></polygon>
            <path d="M22.8333333,13.7666667 L22.8333333,29.2333333 L21.8333333,29.2333333 L21.8333333,12.7666667 L28.2333333,12.7666667 L28.2333333,10.1 L32.5,10.1 L32.5,6.83333333 L19.7,6.83333333 L19.7,4.2 C19.7,2.71614237 18.4838576,1.5 17,1.5 C15.5161424,1.5 14.3,2.71614237 14.3,4.2 L14.3,6.83333333 L1.5,6.83333333 L1.5,10.1 L5.76666667,10.1 L5.76666667,12.7666667 L12.1666667,12.7666667 L12.1666667,29.2333333 L11.1666667,29.2333333 L11.1666667,13.7666667 L4.76666667,13.7666667 L4.76666667,11.1 L0.5,11.1 L0.5,5.83333333 L13.3,5.83333333 L13.3,4.2 C13.3,2.16385763 14.9638576,0.5 17,0.5 C19.0361424,0.5 20.7,2.16385763 20.7,4.2 L20.7,5.83333333 L33.5,5.83333333 L33.5,11.1 L29.2333333,11.1 L29.2333333,13.7666667 L22.8333333,13.7666667 Z" id="Shape"></path>
            <path d="M24.9666667,28.2333333 L24.9666667,33.5 L9.03333333,33.5 L9.03333333,28.2333333 L24.9666667,28.2333333 Z M10.0333333,29.2333333 L10.0333333,32.5 L23.9666667,32.5 L23.9666667,29.2333333 L10.0333333,29.2333333 Z" id="Shape"></path>
        </g>
    </g>
</svg>